<svg width="340" height="104" viewBox="0 0 340 104" fill="none" xmlns="http://www.w3.org/2000/svg">
<g clip-path="url(#clip0_1636_136)">
<path d="M312.525 91.3H301.885V43.21H312.175V46.78C312.968 45.5667 314.275 44.54 316.095 43.7C317.961 42.8133 320.061 42.37 322.395 42.37C327.341 42.37 331.261 44.0733 334.155 47.48C337.095 50.84 338.565 55.18 338.565 60.5C338.565 65.82 337.001 70.2067 333.875 73.66C330.795 77.0667 326.828 78.77 321.975 78.77C317.588 78.77 314.438 77.6033 312.525 75.27V91.3ZM325.825 67.01C327.365 65.47 328.135 63.3233 328.135 60.57C328.135 57.8167 327.365 55.6933 325.825 54.2C324.331 52.7067 322.465 51.96 320.225 51.96C318.031 51.96 316.165 52.7067 314.625 54.2C313.131 55.6933 312.385 57.8167 312.385 60.57C312.385 63.3233 313.131 65.47 314.625 67.01C316.165 68.5033 318.031 69.25 320.225 69.25C322.465 69.25 324.331 68.5033 325.825 67.01Z" fill="#252422"/>
<path d="M262.854 43.21H274.124L280.914 63.86L286.724 43.21H297.154L286.374 78H275.804L268.244 55.53L260.824 78H250.044L239.124 43.21H250.184L255.994 63.79L262.854 43.21Z" fill="#252422"/>
<path d="M201.342 78L213.312 60.64L201.132 43.21H213.662L219.892 52.73L225.982 43.21H237.882L225.842 60.22C233.635 71.3266 237.789 77.2533 238.302 78H225.842L219.402 68.2C218.702 69.2733 217.582 71 216.042 73.38C214.502 75.76 213.499 77.3 213.032 78H201.342Z" fill="#252422"/>
<path d="M196.431 78H185.791V43.21H196.431V78ZM186.701 36.98C185.488 35.7666 184.881 34.2966 184.881 32.57C184.881 30.8433 185.488 29.3733 186.701 28.16C187.914 26.9466 189.361 26.34 191.041 26.34C192.768 26.34 194.238 26.9466 195.451 28.16C196.711 29.3733 197.341 30.8433 197.341 32.57C197.341 34.2966 196.711 35.7666 195.451 36.98C194.238 38.1933 192.768 38.8 191.041 38.8C189.361 38.8 187.914 38.1933 186.701 36.98Z" fill="#252422"/>
<path d="M172.161 33.0601V43.2101H178.951V52.5201H172.161V65.5401C172.161 67.9667 173.444 69.1801 176.011 69.1801C176.851 69.1801 177.784 69.0634 178.811 68.8301V77.6501C177.504 78.3034 175.661 78.6301 173.281 78.6301C169.688 78.6301 166.841 77.6267 164.741 75.6201C162.688 73.6134 161.661 70.8834 161.661 67.4301V52.5201H155.501V43.2101H157.251C159.024 43.2101 160.354 42.6967 161.241 41.6701C162.174 40.5967 162.641 39.2201 162.641 37.5401V33.0601H172.161Z" fill="#252422"/>
<path d="M129.069 56.44H142.999C142.906 54.8534 142.276 53.4767 141.109 52.31C139.989 51.1434 138.286 50.56 135.999 50.56C133.946 50.56 132.313 51.1667 131.099 52.38C129.886 53.5934 129.209 54.9467 129.069 56.44ZM143.769 65.47L152.659 67.99C151.773 71.21 149.929 73.87 147.129 75.97C144.329 78.0234 140.829 79.05 136.629 79.05C131.589 79.05 127.296 77.37 123.749 74.01C120.249 70.65 118.499 66.1467 118.499 60.5C118.499 55.0867 120.203 50.6767 123.609 47.27C127.063 43.8634 131.146 42.16 135.859 42.16C141.273 42.16 145.519 43.7467 148.599 46.92C151.726 50.0467 153.289 54.41 153.289 60.01C153.289 61.7834 153.219 62.88 153.079 63.3H128.859C128.953 65.2134 129.769 66.8234 131.309 68.13C132.849 69.39 134.669 70.02 136.769 70.02C140.363 70.02 142.696 68.5034 143.769 65.47Z" fill="#252422"/>
<path d="M101.69 79.4V43.21H112.33V80.52C112.33 84.0666 111.28 86.9133 109.18 89.06C107.127 91.2533 104.35 92.35 100.85 92.35C98.47 92.35 96.51 92.0233 94.97 91.37V82.55C95.95 82.83 97 82.97 98.12 82.97C100.5 82.97 101.69 81.78 101.69 79.4ZM102.6 36.98C101.387 35.7666 100.78 34.2966 100.78 32.57C100.78 30.8433 101.387 29.3733 102.6 28.16C103.813 26.9466 105.26 26.34 106.94 26.34C108.713 26.34 110.207 26.9466 111.42 28.16C112.633 29.3733 113.24 30.8433 113.24 32.57C113.24 34.2966 112.61 35.7666 111.35 36.98C110.137 38.1933 108.667 38.8 106.94 38.8C105.26 38.8 103.813 38.1933 102.6 36.98Z" fill="#252422"/>
<path d="M1.44063 67.7916C1.43526 67.8225 1.43391 67.8523 1.43511 67.8835C1.43497 67.9151 1.43447 67.9454 1.44187 67.9757C1.44732 68.0094 1.46043 68.0396 1.47391 68.0712C1.48197 68.0905 1.48212 68.1098 1.49286 68.1285L10.6755 84.0395L10.6776 84.0418C10.6816 84.0486 10.6897 84.0522 10.6937 84.059C10.7334 84.1216 10.7848 84.1795 10.8544 84.2197C10.924 84.2599 10.9986 84.2758 11.074 84.2786C11.0827 84.2791 11.0899 84.2843 11.0978 84.2844L11.0999 84.2845L29.4646 84.278L47.8326 84.2836C47.8546 84.2827 47.8714 84.2732 47.8917 84.2713C47.9258 84.2672 47.959 84.2626 47.9904 84.2513C48.02 84.2413 48.0468 84.2262 48.0736 84.2111C48.1013 84.1965 48.1269 84.1796 48.1509 84.1595C48.1759 84.1378 48.1963 84.1122 48.2182 84.0841C48.2302 84.0672 48.2475 84.0569 48.2583 84.0382L57.4424 68.1309L66.624 52.2279L75.8085 36.3198C75.8139 36.3105 75.8132 36.2999 75.8181 36.2914C75.8267 36.2726 75.8353 36.2538 75.8414 36.2335C75.8484 36.2116 75.8549 36.1904 75.8594 36.167C75.8634 36.1444 75.8664 36.1235 75.8677 36.1016C75.8687 36.092 75.8736 36.0835 75.8733 36.0743C75.873 36.0651 75.8678 36.0564 75.8675 36.0472C75.8657 36.0247 75.8639 36.0044 75.8586 35.9821C75.8539 35.959 75.849 35.938 75.8411 35.9165C75.8331 35.8949 75.8268 35.8765 75.8165 35.857C75.8118 35.8475 75.812 35.8374 75.8076 35.8293L66.6194 19.9241C66.6086 19.9055 66.5921 19.8948 66.5791 19.8782C66.5588 19.8507 66.5392 19.8258 66.5121 19.8022C66.4878 19.7814 66.462 19.7654 66.4335 19.75C66.4072 19.7348 66.3817 19.7201 66.3525 19.71C66.3193 19.6988 66.2867 19.6947 66.2509 19.6899C66.2309 19.6874 66.2134 19.6784 66.1932 19.6781L47.8325 19.6778C47.821 19.678 47.8111 19.6835 47.8005 19.6842C47.7815 19.6857 47.7642 19.6882 47.7438 19.6922C47.7198 19.6965 47.6975 19.7017 47.6746 19.71C47.6527 19.7166 47.6342 19.7252 47.6139 19.7349C47.6057 19.7393 47.5956 19.7391 47.5875 19.7434C47.5788 19.7486 47.5739 19.7571 47.5666 19.762C47.5474 19.7735 47.5308 19.7866 47.5141 19.8018C47.4966 19.8166 47.4815 19.8328 47.466 19.8499C47.451 19.8661 47.4386 19.8816 47.427 19.8998C47.4221 19.9083 47.4126 19.913 47.4072 19.9223L38.2227 35.8304L29.1822 51.489L11.0988 51.4847C11.0873 51.4849 11.0782 51.4909 11.069 51.4912C11.0478 51.4926 11.0297 51.4946 11.0079 51.499C10.9839 51.5033 10.9638 51.5086 10.9409 51.5169C10.9185 51.5244 10.9005 51.5321 10.8802 51.5418C10.872 51.5462 10.8619 51.546 10.8537 51.5503C10.8456 51.5547 10.8402 51.564 10.8329 51.5688C10.8137 51.5804 10.7971 51.5935 10.7804 51.6087C10.7629 51.6235 10.7478 51.6397 10.7323 51.6568C10.7178 51.6722 10.7053 51.6898 10.6933 51.7067C10.6884 51.7152 10.6789 51.7199 10.674 51.7284L1.48946 67.6365C1.47917 67.6543 1.47786 67.6762 1.46975 67.6941C1.46024 67.7282 1.44831 67.7587 1.44063 67.7916ZM65.9122 20.6589L74.5344 35.5842L57.2937 35.5866L48.683 20.6589L65.9122 20.6589ZM20.5671 68.3789L37.8002 68.3721L29.1822 83.2989L11.9496 83.3049L20.5671 68.3789ZM56.7347 67.3964L39.4979 67.392L48.1144 52.4677L65.3512 52.4721L56.7347 67.3964ZM65.9168 51.4925L48.68 51.4881L57.2945 36.5672L74.5353 36.5649L65.9168 51.4925ZM38.9315 68.3711L56.1678 68.3763L47.5498 83.3032L30.313 83.2988L38.9315 68.3711ZM29.1851 52.4719L37.8007 67.3911L20.5676 67.3979L11.951 52.4668L29.1851 52.4719Z" fill="#008710"/>
<path d="M66.5123 19.8017C66.5395 19.8253 66.5595 19.8507 66.5798 19.8783C66.5928 19.8947 66.6088 19.9058 66.6195 19.9244L75.808 35.8299C75.8121 35.838 75.8121 35.8478 75.8167 35.857C75.8269 35.8765 75.8331 35.8949 75.841 35.9164C75.8489 35.9378 75.8538 35.9588 75.8585 35.9818C75.8637 36.0038 75.8658 36.0244 75.8675 36.0466C75.8678 36.0559 75.8732 36.0652 75.8735 36.0744C75.8738 36.0837 75.8686 36.0924 75.8676 36.102C75.8663 36.1237 75.8638 36.1446 75.8598 36.1671C75.8553 36.1905 75.8483 36.2118 75.8412 36.2337C75.8352 36.2539 75.8266 36.2724 75.8181 36.2911C75.8132 36.2996 75.8144 36.3108 75.809 36.3202L48.2589 84.0384L48.218 84.0844C48.1962 84.1123 48.1762 84.138 48.1513 84.1597C48.1273 84.1797 48.1016 84.1967 48.074 84.2112C48.0472 84.2263 48.0197 84.2411 47.9902 84.2512C47.9588 84.2624 47.9259 84.2678 47.892 84.2719C47.8717 84.2738 47.8549 84.2833 47.8329 84.2842L11.1006 84.2845L11.0985 84.2844C11.0906 84.2844 11.083 84.2788 11.0744 84.2782C10.9991 84.2755 10.9244 84.2601 10.8549 84.22C10.7853 84.1798 10.7336 84.1211 10.6939 84.0586C10.6899 84.052 10.6821 84.0484 10.6782 84.0418L10.6762 84.0395L1.49312 68.1283C1.48249 68.1097 1.4823 68.0902 1.47426 68.0709C1.46083 68.0395 1.44724 68.0095 1.4418 67.9759C1.43441 67.9457 1.43518 67.9153 1.43532 67.8838L1.44083 67.7919C1.44852 67.759 1.46037 67.7279 1.46988 67.6937L1.48961 67.6366L10.6743 51.7283C10.6792 51.7199 10.6887 51.7148 10.6936 51.7063C10.7055 51.6896 10.7178 51.672 10.7322 51.6567C10.7477 51.6397 10.7634 51.6234 10.7809 51.6086C10.7975 51.5936 10.8137 51.5803 10.8326 51.5689C10.8399 51.564 10.8462 51.5548 10.8543 51.5504C10.8623 51.5463 10.8721 51.5463 10.8801 51.5421C10.9005 51.5324 10.9189 51.5241 10.9413 51.5166C10.964 51.5084 10.9841 51.503 11.0079 51.4988C11.0296 51.4944 11.0478 51.4922 11.0689 51.4908L11.0988 51.4849L29.183 51.4889L47.4078 19.9226C47.4131 19.9133 47.4227 19.9083 47.4276 19.8998C47.4391 19.8818 47.4512 19.8663 47.4661 19.8502C47.4816 19.8332 47.4965 19.8164 47.5141 19.8017C47.5307 19.7865 47.5476 19.7739 47.5666 19.7624C47.5739 19.7576 47.5789 19.7487 47.5875 19.7435C47.5956 19.7391 47.6064 19.7391 47.6146 19.7348C47.6347 19.7251 47.6535 19.7167 47.6752 19.7101C47.698 19.7019 47.7202 19.6966 47.7441 19.6924C47.7645 19.6884 47.7818 19.6857 47.8007 19.6842L47.8328 19.6784L66.1934 19.6784C66.2135 19.6787 66.2311 19.687 66.2511 19.6896C66.2868 19.6943 66.32 19.6986 66.3532 19.7098C66.3823 19.7199 66.4078 19.7347 66.434 19.7499C66.4624 19.7651 66.4882 19.7811 66.5123 19.8017ZM2.48107 67.8796L11.1008 82.8158L19.7193 67.8881L11.1022 52.9569L11.0995 52.952L2.48107 67.8796ZM20.5677 68.379L11.9502 83.305L29.1824 83.299L37.8004 68.3722L20.5677 68.379ZM38.9317 68.3711L30.3133 83.2987L47.5505 83.3033L56.1685 68.3765L38.9317 68.3711ZM11.9512 52.4667L20.5682 67.3979L37.801 67.3911L29.1858 52.4719L11.9512 52.4667ZM48.1148 52.4674L39.4983 67.3917L56.7355 67.3963L65.352 52.472L48.1148 52.4674ZM57.2947 36.5674L48.68 51.4884L65.9172 51.493L74.5357 36.5654L57.2947 36.5674ZM48.6835 20.6592L57.2939 35.5866L74.535 35.5846L65.9124 20.659L48.6835 20.6592ZM30.0328 51.9773L30.0347 51.9817L38.6499 66.9008L56.4458 36.0773L47.8337 21.149L47.833 21.1463L30.0328 51.9773Z" fill="#252422"/>
<path d="M75.809 36.3198L75.8178 36.2912C75.8263 36.2726 75.8351 36.2539 75.8411 36.2338C75.8481 36.212 75.8553 36.1908 75.8598 36.1675C75.8638 36.145 75.8662 36.1236 75.8676 36.1018C75.8686 36.0923 75.8738 36.0835 75.8736 36.0744L75.8676 36.0471C75.8659 36.0248 75.8636 36.0035 75.8584 35.9815L75.8411 35.9167C75.8332 35.8953 75.8269 35.8764 75.8166 35.857C75.8121 35.8478 75.8117 35.8381 75.8076 35.8301L66.6195 19.9247C66.6088 19.9061 66.5926 19.8949 66.5796 19.8785C66.5593 19.8509 66.5394 19.8253 66.5123 19.8017C66.4882 19.7811 66.4623 19.7655 66.434 19.7502L66.3534 19.71C66.3203 19.6988 66.2866 19.6942 66.2509 19.6894C66.231 19.6868 66.2134 19.6789 66.1933 19.6786L47.8327 19.6787L47.8008 19.6841C47.7818 19.6856 47.7643 19.6887 47.7439 19.6927L47.6756 19.7101C47.6539 19.7166 47.6344 19.7253 47.6143 19.735L47.5876 19.7435L47.5669 19.7624C47.5479 19.7739 47.5305 19.7867 47.5139 19.8019L47.4663 19.8502L47.4277 19.9002C47.4228 19.9085 47.4132 19.9133 47.4078 19.9224L29.1829 51.489L11.099 51.4848L11.0687 51.4911C11.0478 51.4925 11.0297 51.4945 11.0081 51.4989L10.9412 51.5164C10.9188 51.5238 10.9004 51.5324 10.88 51.5421L10.8542 51.5504C10.8461 51.5547 10.8402 51.5641 10.8329 51.569C10.8141 51.5804 10.7978 51.5936 10.7813 51.6086C10.7638 51.6233 10.7479 51.6398 10.7324 51.6568C10.718 51.6721 10.7051 51.6898 10.6932 51.7065C10.6883 51.7148 10.6791 51.7201 10.6742 51.7285L1.48957 67.6367L1.4701 67.6936C1.4606 67.7276 1.44848 67.7589 1.4408 67.7917L1.43526 67.8839C1.43512 67.9154 1.43433 67.9458 1.44171 67.976C1.44716 68.0096 1.46094 68.0399 1.47437 68.0714C1.48226 68.0905 1.48269 68.1101 1.49325 68.1286L10.6762 84.0394L10.6782 84.0419C10.6821 84.0485 10.6898 84.0521 10.6938 84.0586L10.7261 84.1047C10.7491 84.1345 10.7755 84.1623 10.8059 84.1865L10.8545 84.2202C10.924 84.2602 10.999 84.2755 11.0742 84.2783C11.0829 84.2789 11.0908 84.2846 11.0986 84.2847L11.1008 84.2845L47.8327 84.2842L47.8922 84.2722C47.9259 84.2682 47.9586 84.2625 47.9898 84.2514C48.0194 84.2413 48.0473 84.2261 48.0742 84.211C48.0879 84.2038 48.1014 84.1963 48.1142 84.1878L48.1516 84.1596C48.1764 84.138 48.1964 84.1122 48.2181 84.0844L48.2587 84.0384L75.809 36.3198ZM10.272 84.5146C10.2743 84.5167 10.2767 84.5184 10.2777 84.5193C10.277 84.5187 10.2731 84.5154 10.2684 84.5111C10.2698 84.5123 10.271 84.5137 10.272 84.5146ZM10.2488 84.4928C10.2515 84.4954 10.2542 84.4978 10.2565 84.5001C10.2536 84.4973 10.2508 84.4939 10.2473 84.4905C10.2479 84.4911 10.2483 84.4922 10.2488 84.4928ZM11.0153 84.8967C11.0208 84.8973 11.0263 84.899 11.032 84.8994L11.0321 84.898C11.0266 84.8977 11.021 84.8971 11.0153 84.8967ZM11.1021 52.957L19.7192 67.8879L11.1008 82.8154L2.48106 67.8795L11.0994 52.952L11.1021 52.957ZM29.1822 83.2989L11.9503 83.3052L20.5678 68.3793L37.8003 68.3719L29.1822 83.2989ZM3.1994 67.8796L11.1009 81.5709L19.0008 67.8878L11.0993 54.1965L3.1994 67.8796ZM20.9274 69.0008L13.0286 82.6818L28.8233 82.6763L36.7223 68.9948L20.9274 69.0008ZM47.5507 83.3034L30.3132 83.2987L38.9316 68.3712L56.1688 68.3764L47.5507 83.3034ZM39.2909 68.9933L31.3909 82.6764L47.1918 82.6808L55.0917 68.9977L39.2909 68.9933ZM37.8012 67.391L20.5682 67.398L11.9514 52.4666L29.1856 52.4721L37.8012 67.391ZM13.0285 53.0884L20.927 66.7753L36.7236 66.7688L28.826 53.0937L13.0285 53.0884ZM10.4795 51.0583C10.4834 51.0557 10.4871 51.0529 10.4912 51.0503L10.4901 51.0497C10.4863 51.0522 10.4831 51.0558 10.4795 51.0583ZM10.6699 50.9571C10.6575 50.9614 10.6434 50.9676 10.6274 50.9747C10.6395 50.969 10.654 50.9638 10.6699 50.9571ZM56.7353 67.3965L39.4983 67.3921L48.1149 52.4678L65.3519 52.4721L56.7353 67.3965ZM47.834 21.1492L56.4457 36.0771L38.6497 66.9008L30.035 51.9817L30.0325 51.9775L47.8328 21.1464L47.834 21.1492ZM48.4741 53.0898L40.576 66.7698L56.3764 66.7739L64.2745 53.0939L48.4741 53.0898ZM30.7511 51.977L38.6498 65.6563L55.7274 36.077L47.8324 22.3914L30.7511 51.977ZM65.9172 51.4929L48.6802 51.4886L57.295 36.5674L74.5356 36.5654L65.9172 51.4929ZM57.6542 37.1894L49.7579 50.8662L65.5583 50.8703L73.4579 37.1878L57.6542 37.1894ZM74.5351 35.5844L57.2937 35.5866L48.6838 20.6591L65.9121 20.6591L74.5351 35.5844ZM49.7604 21.2806L57.6534 34.9636L73.4575 34.9622L65.5528 21.2802L49.7604 21.2806ZM76.4854 36.1666C76.4848 36.173 76.4835 36.1792 76.4829 36.1855C76.4837 36.1797 76.4858 36.1735 76.4864 36.1672L76.4854 36.1666ZM76.3737 35.5823C76.3795 35.5939 76.3838 35.6059 76.3888 35.617C76.3844 35.6064 76.3809 35.5943 76.3751 35.5824L76.3737 35.5823ZM48.7659 84.4042L48.7236 84.452L48.683 84.498C48.6564 84.531 48.6137 84.5819 48.5597 84.6289L48.5551 84.6332L48.55 84.6373C48.4947 84.6834 48.4369 84.7211 48.3786 84.753L48.3788 84.7538C48.352 84.7689 48.2841 84.8063 48.1994 84.8362L48.1996 84.837C48.1982 84.8375 48.1964 84.8373 48.195 84.8378C48.1935 84.8383 48.1922 84.8398 48.1907 84.8403L48.1905 84.8394C48.1195 84.864 48.0541 84.8759 48.0069 84.8829C47.9981 84.8851 47.988 84.8885 47.977 84.8909C47.9465 84.8973 47.9063 84.9041 47.8588 84.9061L47.846 84.9064L47.8326 84.9064L11.1007 84.9068L11.082 84.9065L11.0635 84.9056L11.0613 84.9058L11.0612 84.9036C11.029 84.9017 11.0006 84.898 10.9766 84.8933C10.8466 84.8806 10.6949 84.8463 10.5439 84.7593C10.3918 84.6714 10.285 84.5559 10.2104 84.4524L10.1689 84.4052L0.954174 68.4389L0.953202 68.437C0.916683 68.3731 0.89712 68.3133 0.887067 68.2781C0.872953 68.2434 0.853471 68.1874 0.838922 68.1233L0.83726 68.1238C0.834684 68.1132 0.833901 68.1023 0.831825 68.0919C0.830816 68.0864 0.828804 68.0811 0.827904 68.0756L0.828736 68.0753C0.810822 67.9744 0.813093 67.8873 0.813173 67.8811L0.813397 67.8637L0.814152 67.8466L0.81969 67.7544L0.823087 67.7024L0.834923 67.6503C0.84455 67.6091 0.855812 67.5737 0.861571 67.5555C0.865483 67.5431 0.866371 67.5407 0.8686 67.5336C0.869355 67.5312 0.869935 67.5294 0.870283 67.5283C0.870601 67.5272 0.870668 67.5264 0.870668 67.5264L0.875572 67.5082L0.882054 67.4909L0.901827 67.4335L0.920993 67.3772L10.1369 51.4148L10.183 51.3459C10.1916 51.3347 10.2007 51.3255 10.2081 51.317C10.2235 51.2963 10.246 51.2675 10.2722 51.2389C10.2735 51.2374 10.2748 51.2358 10.2762 51.2342C10.2775 51.2329 10.2783 51.2311 10.2795 51.2298C10.2989 51.2087 10.3276 51.1799 10.3628 51.1488C10.3684 51.1436 10.3742 51.1378 10.3809 51.1319C10.3978 51.1172 10.4188 51.1013 10.4423 51.0839C10.4442 51.0823 10.4456 51.0801 10.4476 51.0785C10.4706 51.0591 10.5096 51.0291 10.5624 51.001L10.5686 50.9975C10.6154 50.9734 10.6564 50.9597 10.6819 50.9521L10.6835 50.9516C10.6981 50.9457 10.7133 50.9384 10.7304 50.9324L10.7297 50.9313C10.7812 50.9126 10.8315 50.8994 10.8852 50.8891C10.9185 50.8824 10.9491 50.8781 10.9783 50.8749L11.0378 50.8629L11.0988 50.863L28.8239 50.8665L46.869 19.6113C46.895 19.5664 46.9224 19.5319 46.9436 19.5077C46.9649 19.4792 46.9864 19.4526 47.0094 19.4278C47.0207 19.4152 47.054 19.3791 47.0953 19.3421C47.1228 19.3171 47.1508 19.2939 47.1804 19.2726C47.202 19.2542 47.2304 19.2327 47.2654 19.2116L47.2798 19.2024L47.2953 19.1938C47.3213 19.18 47.3453 19.1699 47.3656 19.162C47.3747 19.1585 47.3835 19.1552 47.3915 19.1524C47.4117 19.1437 47.4367 19.1352 47.4644 19.1258L47.4641 19.125C47.5298 19.1013 47.5883 19.088 47.6348 19.0797L47.635 19.0805C47.6522 19.0773 47.6706 19.0751 47.6902 19.0724L47.7224 19.0664L47.7772 19.0566L47.8327 19.0564L66.1934 19.0564L66.1983 19.0564L66.2037 19.0567C66.2697 19.0578 66.3251 19.0693 66.3558 19.0764C66.3954 19.0818 66.4724 19.0935 66.5526 19.1207L66.5574 19.122C66.6337 19.1485 66.6974 19.1847 66.7285 19.2025C66.7314 19.2041 66.7343 19.206 66.7374 19.2077C66.7404 19.2094 66.7433 19.2104 66.7451 19.2114C66.7655 19.2228 66.7889 19.2363 66.8139 19.2526L66.9171 19.329L66.9207 19.3325C66.9807 19.3847 67.0245 19.4378 67.0545 19.4763C67.076 19.499 67.12 19.5463 67.1589 19.6138L67.1581 19.614L76.3465 35.5189L76.3559 35.5342L76.3639 35.5507C76.3864 35.5955 76.3995 35.6345 76.4067 35.6589C76.4165 35.6834 76.4242 35.6998 76.4248 35.7016C76.4491 35.7677 76.4617 35.8257 76.4681 35.8564L76.4667 35.8563C76.4742 35.8911 76.4799 35.9225 76.483 35.9484C76.4846 35.9568 76.4866 35.9661 76.4881 35.976C76.4914 35.9974 76.4942 36.0231 76.4952 36.0523L76.4954 36.0545C76.4974 36.1184 76.4894 36.1712 76.4822 36.2062C76.4814 36.2101 76.4799 36.214 76.479 36.2177L76.4723 36.2755L76.471 36.2839L76.4369 36.4122C76.4358 36.4158 76.4352 36.4197 76.434 36.4232C76.4228 36.4589 76.4097 36.491 76.3997 36.5143C76.3887 36.5468 76.3729 36.5874 76.3478 36.6309L48.7659 84.4042Z" fill="#252422"/>
<path d="M31.1794 82.7373L38.9563 68.9255H55.7545L47.6665 82.7373H31.1794Z" fill="#008710"/>
</g>
<defs>
<clipPath id="clip0_1636_136">
<rect width="340" height="104" fill="white"/>
</clipPath>
</defs>
</svg>
